<svg xmlns="http://www.w3.org/2000/svg" xmlns:xlink="http://www.w3.org/1999/xlink" width="100" height="100" viewBox="0 0 100 100"><g><g transform="translate(50 50) scale(0.69 0.69) rotate(0) translate(-50 -50)" style="fill:#5c2018;"><svg fill="#5c2018" xmlns="http://www.w3.org/2000/svg" data-name="Layer 1" viewBox="0 0 100 100" x="0px" y="0px"><title>blood test</title><path d="M62.69,9.32H37.31a1.85,1.85,0,0,0-1.85,1.85v6A1.85,1.85,0,0,0,37.31,19h1.21v60.3a11.48,11.48,0,1,0,23,0V19h1.21a1.85,1.85,0,0,0,1.85-1.85v-6A1.85,1.85,0,0,0,62.69,9.32Zm-3,70a9.68,9.68,0,0,1-19.36,0V19H59.68Z"></path><path d="M56.8,32.31h-10V59.68a.9.9,0,0,1-1.8,0V32.31H43.2a1.31,1.31,0,0,0-1.31,1.31V78.93a8.11,8.11,0,0,0,16.22,0V33.62A1.31,1.31,0,0,0,56.8,32.31Z"></path></svg></g></g></svg>