<svg xmlns="http://www.w3.org/2000/svg" xmlns:xlink="http://www.w3.org/1999/xlink" width="100" height="100" viewBox="0 0 100 100"><g><g transform="translate(50 50) scale(0.69 0.69) rotate(0) translate(-50 -50)" style="fill:#83190a;"><svg fill="#83190a" xmlns="http://www.w3.org/2000/svg" xmlns:xlink="http://www.w3.org/1999/xlink" version="1.1" x="0px" y="0px" viewBox="0 0 80 80" style="enable-background:new 0 0 80 80;" xml:space="preserve"><path d="M63.4549828,30.8175201l-23-11.710022c-0.289978-0.1400146-0.6199951-0.1400146-0.9099731,0l-23.0000019,11.710022  c-0.4899902,0.25-0.6900024,0.8499756-0.4400024,1.3399658c0.25,0.4900513,0.8499756,0.6900024,1.3499756,0.4400024  l0.5400391-0.2799683v27.6799927c0,0.5499878,0.4500122,1,1,1h15.0000019V45.3675079c0-0.5599976,0.4500122-1,1-1h10  c0.5599976,0,1,0.4400024,1,1v15.6300049h15c0.5599976,0,1-0.4500122,1-1V32.3175201l0.5499878,0.2799683  c0.1500244,0.0700073,0.2999878,0.1100464,0.4500122,0.1100464c0.3699951,0,0.7199707-0.2000122,0.8999634-0.5500488  C64.1449814,31.6674957,63.945034,31.0675201,63.4549828,30.8175201z M30.9950199,41.4575348c0,0.5599976-0.4400024,1-1,1h-6  c-0.5499878,0-1-0.4400024-1-1v-5.8500366c0-0.5499878,0.4500122-1,1-1h6c0.5599976,0,1,0.4500122,1,1V41.4575348z   M43.9950218,41.4575348c0,0.5599976-0.4400024,1-1,1h-6c-0.5499878,0-1-0.4400024-1-1v-5.8500366c0-0.5499878,0.4500122-1,1-1h6  c0.5599976,0,1,0.4500122,1,1V41.4575348z M42.9950218,29.7774811h-2v1.9300537c0,0.5499878-0.4400024,1-1,1  c-0.5499878,0-1-0.4500122-1-1v-1.9300537h-2c-0.5499878,0-1-0.4399414-1-1c0-0.5499878,0.4500122-1,1-1h2v-1.9199829  c0-0.5599976,0.4500122-1,1-1c0.5599976,0,1,0.4400024,1,1v1.9199829h2c0.5599976,0,1,0.4500122,1,1  C43.9950218,29.3375397,43.5550194,29.7774811,42.9950218,29.7774811z M56.9950218,41.4575348c0,0.5599976-0.4400024,1-1,1h-6  c-0.5499878,0-1-0.4400024-1-1v-5.8500366c0-0.5499878,0.4500122-1,1-1h6c0.5599976,0,1,0.4500122,1,1V41.4575348z"></path></svg></g></g></svg>