<?xml version="1.0"?>
<svg xmlns="http://www.w3.org/2000/svg" xmlns:xlink="http://www.w3.org/1999/xlink" version="1.1" id="Capa_1" x="0px" y="0px" viewBox="0 0 58.143 58.143" style="enable-background:new 0 0 58.143 58.143;" xml:space="preserve" width="512px" height="512px" class=""><g><g><g>
	<path style="fill:#83190A" d="M18.769,21.096c0,0-10.5-19,11-21s32.375,27.875,25,39c0,0,3.625,19.125-13,19c0,0-10.51,1.75-11-16   C30.193,21.217,18.769,21.096,18.769,21.096z" data-original="#83190A" class="" data-old_color="#83190a"/>
	<path style="fill:#4056A1" d="M40.072,36.552h-3.53c-4.153-4.108-10.104-4.965-14.895-2.54c2.578-4.523,5.516-6.07,7.705-6.521   c2.218-0.457,3.971,0.181,4.416,0.625l2.829,2.83c0.195,0.195,0.451,0.293,0.707,0.293s0.512-0.098,0.707-0.293   c0.391-0.391,0.391-1.023,0-1.414l-2.121-2.122l2.121-2.121c0.391-0.391,0.391-1.023,0-1.414s-1.023-0.391-1.414,0l-2.244,2.244   c-1.241-0.67-3.226-1.036-5.405-0.586c-2.56,0.528-5.965,2.255-8.876,7.206v-5.641c0-4.411,3.589-8,8-8h4c0.553,0,1-0.447,1-1   s-0.447-1-1-1h-3v-3c0-0.553-0.447-1-1-1s-1,0.447-1,1v3.051c-5.046,0.503-9,4.773-9,9.949v10c0,8.822-7.178,16-16,16   c-0.553,0-1,0.447-1,1s0.447,1,1,1c9.768,0,17.728-7.827,17.977-17.537c4.235-3.966,10.732-3.828,15.023,0.356v3.636   c0,0.553,0.447,1,1,1s1-0.447,1-1v-3h3c0.553,0,1-0.447,1-1S40.624,36.552,40.072,36.552z" data-original="#4056A1" class="" data-old_color="#4056a1"/>
	<path style="fill:#F2F0EB" d="M52.358,31.821c0.035-0.263-0.036-0.53-0.198-0.74c-0.079-0.102-0.176-0.187-0.286-0.252   c-0.003-0.001-0.004-0.004-0.006-0.006l0,0h0c-2.083-1.203-3.566-3.119-4.176-5.395c-0.61-2.276-0.283-4.678,0.92-6.761   c0.012-0.02,0.011-0.043,0.021-0.063c0.047-0.096,0.088-0.197,0.103-0.305c0.035-0.263-0.036-0.529-0.198-0.74   c-0.161-0.21-0.399-0.348-0.661-0.382c-0.132-0.017-0.265-0.009-0.392,0.025c-2.327,0.622-4.748,0.303-6.829-0.898   c-2.08-1.201-3.569-3.143-4.191-5.467c-0.142-0.533-0.69-0.851-1.225-0.707c-0.533,0.143-0.85,0.691-0.707,1.225   c0.761,2.84,2.58,5.213,5.123,6.682c1.693,0.978,3.574,1.477,5.479,1.477c0.306,0,0.613-0.035,0.92-0.06   c-0.759,2.086-0.873,4.333-0.295,6.493c0.578,2.156,1.797,4.042,3.493,5.469c-4.709,2.228-7.316,7.574-5.921,12.782   c0.119,0.447,0.523,0.741,0.965,0.741c0.086,0,0.173-0.011,0.26-0.034c0.533-0.143,0.85-0.691,0.707-1.225   c-1.284-4.794,1.57-9.739,6.363-11.023c0.003-0.001,0.004-0.003,0.007-0.003c0.111-0.031,0.213-0.086,0.309-0.153   c0.023-0.016,0.045-0.032,0.066-0.05c0.087-0.073,0.166-0.156,0.226-0.26c0.012-0.02,0.011-0.043,0.021-0.063   C52.302,32.03,52.343,31.929,52.358,31.821z" data-original="#F2F0EB" class="active-path" data-old_color="#f2f0eb"/>
</g></g></g> </svg>
