<svg xmlns="http://www.w3.org/2000/svg" xmlns:xlink="http://www.w3.org/1999/xlink" width="100" height="100" viewBox="0 0 100 100"><g><g transform="translate(50 50) scale(0.69 0.69) rotate(0) translate(-50 -50)" style="fill:#83190a;"><svg fill="#83190a" xmlns="http://www.w3.org/2000/svg" xmlns:xlink="http://www.w3.org/1999/xlink" version="1.1" x="0px" y="0px" viewBox="0 0 260.023 256.92" style="enable-background:new 0 0 260.023 256.92;" xml:space="preserve"><g><path d="M152.764,160.021h18.823c-1.047-0.755-2.031-1.508-2.933-2.245c-8.012-6.516-12.088-12.978-13.146-14.801   c-1.342-2.386-1.665-5.083-0.945-7.656c0.721-2.573,2.4-4.71,4.729-6.018c1.493-0.841,3.188-1.285,4.896-1.285   c3.601,0,6.938,1.945,8.709,5.077c0.074,0.123,0.164,0.264,0.292,0.457c0.287,0.438,0.777,1.144,1.477,2.037   c1.298,1.65,3.493,4.146,6.593,6.661c2.034,1.634,4.144,3.06,6.34,4.279c-2.601-4.436-4.96-8.685-7.099-12.392   c-4.373-9.389-15.027-15.906-22.863-11.902c-7.834,4.002-14.121,15.627-8.296,29.975   C150.483,154.981,151.617,157.563,152.764,160.021z"></path><path d="M244.931,230.318c0,6.032-2.99,11.465-7.676,14.754c2.291,3.293,6.097,5.37,10.252,5.371c0.627,0,1.264-0.049,1.904-0.146   c6.824-1.045,11.51-7.422,10.467-14.248l-8.668-56.666c-0.734-4.8-4.115-8.58-8.508-9.997c1.418,2.575,2.229,5.529,2.229,8.671   V230.318z"></path><path d="M114.04,198.031c20.685-15.785,39.054-29.789,63.404-34.264c-1.016-0.573-1.978-1.158-2.904-1.747h-27.777l-13.977-69.873   c-1.736-8.684-9.211-14.508-16.693-13.014L97.126,82.93c-7.484,1.494-12.141,9.75-10.406,18.434l19.914,99.547v2.748   C109.145,201.765,111.613,199.883,114.04,198.031z"></path><path d="M230.883,169.262c-7.203,1.823-14.269,2.747-21.001,2.747h-0.023h-0.123c-8.326,0-15.56-1.411-21.746-3.524   c-27.848,1.935-47.68,17.054-70.403,34.384c-3.552,2.709-7.195,5.481-10.953,8.276v19.173c0,7.85,5.646,14.369,13.096,15.752v6.281   h25.656v-6h58.795v6h25.656v-6.281c7.449-1.383,13.094-7.904,13.094-15.752v-52.264c0-5.203-2.488-9.813-6.329-12.743   C235.273,167.204,233.295,168.652,230.883,169.262z"></path><ellipse transform="matrix(0.9578 -0.2874 0.2874 0.9578 -20.5406 50.291)" cx="161.023" cy="95.107" rx="22.496" ry="22.494"></ellipse><path d="M11.501,27.833h16.834v91.001H3.585v54.5h24.75v58.705c-17.706,0.788-23.025,8.277-23.433,9.117l-0.418,0.707v3.929   c-1.844,1.004-3.095,2.958-3.095,5.205c0,3.273,2.652,5.924,5.924,5.924s5.924-2.65,5.924-5.924c0-2.104-1.101-3.947-2.754-4.999   v-2.241c1.323-1.38,5.855-5.042,17.852-5.682v8.357c-1.312,1.086-2.148,2.727-2.148,4.564c0,3.273,2.653,5.924,5.924,5.924   c3.273,0,5.922-2.65,5.922-5.924c0-2.081-1.075-3.909-2.697-4.965v-7.962c7.285,0.4,11.798,1.97,14.476,3.403   c1.551,0.83,2.5,1.62,3.039,2.148c0.043,0.043,0.084,0.085,0.123,0.124v2.392c-1.535,1.07-2.542,2.847-2.542,4.86   c0,3.273,2.652,5.924,5.924,5.924c3.271,0,5.924-2.65,5.924-5.924c0-2.33-1.349-4.341-3.306-5.308v-3.827l-0.418-0.707   c-0.406-0.836-5.681-8.271-23.22-9.109v-58.712h11.301h2.003c0.371,9.797,2.861,21.078,7.589,30.27   c5.113,9.955,13.008,17.588,23.768,17.596c5.957,0,12.656-2.348,20.092-7.723c29.775-21.54,51.241-42.857,83.657-46.619   c-1.171-0.498-2.306-1.013-3.388-1.55c-31.45,4.832-52.806,25.87-81.441,46.547c-7.207,5.207-13.504,7.346-18.92,7.344   c-9.701,0.008-17.01-6.869-21.988-16.512c-4.55-8.826-7.001-19.855-7.367-29.353h2.001h7.444v-54.5h-9.388   c1.117-7.715,1.506-14.723,1.506-20.658c0-8.411-0.758-14.683-1.242-17.842h1.79c1.15,0,2.084-0.934,2.084-2.084   c0-0.735-0.384-1.379-0.96-1.75c-0.324-0.209-0.709-0.334-1.124-0.334h-0.75V74.5h8.979c2.209,0,4-1.791,4-4v-32   c0-2.209-1.791-4-4-4h-6.78c0.13-0.633,0.219-1.306,0.283-2c0.055-0.608,0.096-1.229,0.104-1.875   c-0.002-1.054-0.094-2.054-0.243-3.003c5.31-1.017,9.325-5.68,9.325-11.287c0-0.829-0.67-1.501-1.499-1.501   c-0.829,0-1.499,0.672-1.499,1.501c-0.009,4.21-3.068,7.689-7.084,8.37c-0.053-0.137-0.093-0.288-0.148-0.419   c-0.375-0.86-0.83-1.613-1.441-2.217c-0.598-0.596-1.439-1.069-2.411-1.069c-0.974-0.002-1.813,0.473-2.414,1.069   c-0.704,0.729-1.246,1.672-1.653,2.766H35.335V3.5c0-1.934-1.568-3.5-3.5-3.5c-1.934,0-3.5,1.566-3.5,3.5v21.333H11.501   C6.806,24.826,3.01,21.028,3,16.334c0-0.829-0.67-1.501-1.499-1.501C0.672,14.833,0,15.506,0,16.334   C0,22.685,5.148,27.833,11.501,27.833z M10.169,146.25h19.666v2.549H10.169V146.25z M10.169,151.018h19.666v2.549H10.169V151.018z    M10.169,158.334v-2.549h19.666v2.549H10.169z M53.085,125.834v16h-42.75v-16H53.085z M61.251,43.334V51.5c0,1.104-0.894,2-2,2   H39.917c-1.104,0-2-0.896-2-2v-8.166c0-1.105,0.896-2,2-2h19.334C60.357,41.334,61.251,42.229,61.251,43.334z M51.111,34.5h-3.045   c-0.162-0.6-0.293-1.274-0.377-2c-0.07-0.599-0.113-1.224-0.105-1.875c-0.002-0.995,0.086-1.94,0.236-2.792h3.523   c0.156,0.854,0.255,1.796,0.241,2.792c0.001,0.651-0.039,1.278-0.106,1.875C51.396,33.226,51.271,33.9,51.111,34.5z M49.272,24.208   c0.239-0.225,0.313-0.205,0.313-0.209c0,0.002,0.073-0.016,0.31,0.209c0.148,0.128,0.306,0.354,0.462,0.625h-1.544   C48.976,24.556,49.138,24.338,49.272,24.208z M44.789,27.833c-0.123,0.884-0.193,1.816-0.205,2.792   c0.002,0.644,0.035,1.268,0.092,1.875c0.065,0.7,0.176,1.362,0.312,2h-6.799c-2.209,0-4,1.791-4,4v32c0,2.209,1.791,4,4,4h8.979   v1.666h-0.75c-0.415,0-0.8,0.125-1.124,0.334c-0.575,0.371-0.958,1.015-0.958,1.75c0,1.15,0.932,2.084,2.082,2.084h2.52   c0.136,0.859,0.298,1.99,0.464,3.403c0.402,3.417,0.804,8.359,0.804,14.439c0,5.923-0.391,12.936-1.526,20.658H35.335V75.777   c-1.872-1.017-3.146-3-3.146-5.277v-32c0-2.276,1.274-4.26,3.146-5.277v-5.39H44.789z"></path><path d="M179.998,143.801c-3.146-2.552-5.441-5.113-6.905-6.979c-0.732-0.931-1.256-1.687-1.575-2.172   c-0.161-0.243-0.27-0.419-0.327-0.517c-0.015-0.023-0.026-0.042-0.034-0.056c-2.171-3.837-7.041-5.198-10.886-3.033   c-3.851,2.164-5.218,7.042-3.052,10.893c0.338,0.581,4.207,7.381,12.7,14.289c8.426,6.882,21.755,13.782,39.818,13.783   c0.041,0,0.081,0,0.122,0c6.307,0.002,13.158-0.822,20.533-2.689c4.283-1.081,6.878-5.431,5.796-9.715   c-1.083-4.284-5.434-6.878-9.717-5.796c-6.184,1.562-11.696,2.199-16.612,2.199C195.808,153.98,186.344,148.9,179.998,143.801z"></path></g></svg></g></g></svg>